<?xml version="1.0" encoding="UTF-8"?>
<svg width="112px" height="64px" viewBox="0 0 112 64" version="1.1" xmlns="http://www.w3.org/2000/svg" xmlns:xlink="http://www.w3.org/1999/xlink">
    <!-- Generator: sketchtool 63 (101010) - https://sketch.com -->
    <title>4785A813-C01B-4EF0-A0CC-FD6A7F96E06F</title>
    <desc>Created with sketchtool.</desc>
    <g id="Styleguide" stroke="none" stroke-width="1" fill="none" fill-rule="evenodd">
        <g transform="translate(-2182.000000, -711.000000)" id="Logo/Colori">
            <g transform="translate(2182.000000, 711.000000)">
                <g id="Group-32" transform="translate(-0.000000, 0.000000)">
                    <path d="M4.46716993,28.9362885 C7.42793762,12.7212066 22.9715762,2.01274754 39.1547029,5.05274754 C51.5348602,7.34992787 60.6522692,17.078977 62.9061517,28.8350426 C61.4610337,15.2875016 51.3671513,3.70140328 37.3041578,1.0658623 C20.1795623,-2.14358033 3.72684739,9.2416 0.530451286,26.402518 C-2.63198507,43.5970098 8.67295428,60.1158295 25.7641125,63.3273705 C26.437038,63.4616656 27.0425664,63.5277639 27.6815322,63.630059 C11.8359131,60.3534689 1.47296495,44.9483541 4.46716993,28.9362885" id="Fill-1" fill="#C8A977"></path>
                    <g id="eataly" transform="translate(10.496332, 28.826492)" fill="#6A3834">
                        <path d="M22.7901789,7.27344262 L20.763043,7.27344262 L22.7901789,2.56839344 L22.7901789,2.60144262 L24.8502295,7.27344262 L22.7901789,7.27344262 Z M27.6741133,9.97508197 L23.3549556,-3.24819536e-14 L23.0895471,-3.24819536e-14 L22.7901789,0.666754098 L18.8022594,9.97508197 C18.2050902,11.3426885 18.1047784,11.677377 16.4762778,11.677377 L16.4762778,12.0760656 L21.028974,12.0760656 L21.028974,11.677377 C19.4339107,11.677377 19.0687128,11.2424918 19.5007853,10.1749508 L20.4312824,8.00681967 L22.7901789,8.00681967 L25.1490753,8.00681967 L26.1130097,10.1749508 C26.5774746,11.2760656 26.2127991,11.677377 24.5842985,11.677377 L24.5842985,12.0760656 L30.0000949,12.0760656 L30.0000949,11.677377 C28.3726392,11.677377 28.2718049,11.3426885 27.6741133,9.97508197 L27.6741133,9.97508197 Z" id="Fill-4"></path>
                        <path d="M47.4992925,2.96944262 L47.0677425,2.96944262 L46.9669082,2.60222951 C46.7014997,1.53416393 46.5348357,1.10085246 44.7417609,1.10085246 L42.1508932,1.10085246 L42.1508932,9.40878689 C42.1508932,11.3424262 42.4157793,11.6771148 44.0108426,11.6771148 L44.0108426,12.077377 L38.728273,12.077377 L38.728273,11.6771148 C40.3557286,11.6771148 40.6216596,11.3424262 40.6216596,9.40878689 L40.6216596,1.10085246 L38.0631843,1.10085246 C36.2685422,1.10085246 36.1024006,1.53416393 35.77064,2.60222951 L35.7037654,2.96944262 L35.2716929,2.96944262 L35.4717942,0.333377049 L47.2991913,0.333377049 L47.4992925,2.96944262 Z" id="Fill-6"></path>
                        <path d="M58.5586246,7.27344262 L56.5309663,7.27344262 L58.5586246,2.56839344 L58.5586246,2.60144262 L60.6176303,7.27344262 L58.5586246,7.27344262 Z M63.4096441,9.97508197 L59.1568386,-3.24819536e-14 L58.8903852,-3.24819536e-14 L58.5586246,0.666754098 L54.6041423,9.97508197 C54.0059283,11.3426885 53.9056164,11.677377 52.244201,11.677377 L52.244201,12.0760656 L56.7968972,12.0760656 L56.7968972,11.677377 C55.1694416,11.677377 54.8037212,11.2424918 55.3016234,10.1749508 L56.2321205,8.00681967 L58.5586246,8.00681967 L60.9504358,8.00681967 L61.9148927,10.1749508 C62.3448754,11.2760656 62.0136372,11.677377 60.3861815,11.677377 L60.3861815,12.0760656 L65.7351033,12.0760656 L65.7351033,11.677377 C64.1405624,11.677377 64.0402506,11.3426885 63.4096441,9.97508197 L63.4096441,9.97508197 Z" id="Fill-8"></path>
                        <path d="M72.4466469,11.6771672 C74.0751475,11.6771672 74.3081637,11.3424787 74.3081637,9.40779016 L74.3081637,3.00254426 C74.3081637,1.06785574 74.0751475,0.733691803 72.4466469,0.733691803 L72.4466469,0.333954098 L77.7631763,0.333954098 L77.7631763,0.733691803 C76.1357206,0.733691803 75.8703121,1.06785574 75.8703121,3.00254426 L75.8703121,9.1072 C75.8703121,11.0418885 76.1357206,11.376577 77.7631763,11.376577 L80.0896804,11.376577 C81.8498403,11.376577 82.082334,10.9096918 82.316395,9.8752 L82.4151395,9.4754623 L82.8477345,9.4754623 L82.7150303,12.0758557 L72.4466469,12.0758557 L72.4466469,11.6771672 Z" id="Fill-10"></path>
                        <path d="M94.2969767,9.40894426 C94.2969767,11.3425836 94.5294703,11.6772721 96.1245337,11.6772721 L96.1245337,12.0775344 L90.8743564,12.0775344 L90.8743564,11.6772721 C92.502857,11.6772721 92.7358731,11.3425836 92.7358731,9.40894426 L92.7358731,7.50678033 L89.4783495,2.43504262 C88.6497316,1.16658361 88.05204,0.733272131 86.6884254,0.733272131 L86.6884254,0.333534426 L92.236926,0.333534426 L92.236926,0.733272131 C90.5765555,0.733272131 90.5765555,1.33392787 91.1742471,2.2016 L93.9981309,6.53838689 L96.8559744,2.2016 C97.5215855,1.16658361 97.4207512,0.733272131 95.792773,0.733272131 L95.792773,0.333534426 L100.344947,0.333534426 L100.344947,0.733272131 C98.7174911,0.733272131 98.3172886,1.3003541 97.5215855,2.43504262 L94.2969767,7.33943607 L94.2969767,9.40894426 Z" id="Fill-12"></path>
                        <path d="M1.76307027e-13,11.7019803 C1.61543916,11.7019803 1.85002266,11.3651934 1.85002266,9.40584918 L1.85002266,2.92086557 C1.85002266,0.962045902 1.61543916,0.624209836 1.76307027e-13,0.624209836 L1.76307027e-13,0.22027541 L9.01448487,0.22027541 L9.1832387,2.85319344 L8.78042383,2.85319344 L8.67906704,2.44820984 C8.37499667,1.40060328 8.20781021,0.962045902 6.39122484,0.962045902 L3.43097961,0.962045902 L3.43097961,5.45411148 L4.44036785,5.45411148 C6.42518459,5.45411148 6.72768759,5.21857049 6.72768759,3.52939016 L7.16498467,3.52939016 L7.16498467,8.08860328 L6.72768759,8.08860328 C6.72768759,6.4340459 6.42518459,6.19693115 4.44036785,6.19693115 L3.43097961,6.19693115 L3.43097961,9.10211148 C3.43097961,11.0609311 3.70056777,11.3987672 5.34839931,11.3987672 L7.06415034,11.3987672 C8.88073571,11.3987672 9.08292683,10.9266361 9.31803279,9.87902951 L9.41886712,9.47352131 L9.82272691,9.47352131 L9.68793283,12.1085377 L1.76307027e-13,12.1085377 L1.76307027e-13,11.7019803 Z" id="Fill-30"></path>
                    </g>
                </g>
            </g>
        </g>
    </g>
</svg>