<?xml version="1.0" encoding="utf-8"?>
<!-- Generator: Adobe Illustrator 15.0.2, SVG Export Plug-In . SVG Version: 6.00 Build 0)  -->
<!DOCTYPE svg PUBLIC "-//W3C//DTD SVG 1.1//EN" "http://www.w3.org/Graphics/SVG/1.1/DTD/svg11.dtd">
<svg version="1.1" id="Livello_1" xmlns="http://www.w3.org/2000/svg" xmlns:xlink="http://www.w3.org/1999/xlink" x="0px" y="0px"
	 width="225px" height="80px" viewBox="0 0 225 80" enable-background="new 0 0 225 80" xml:space="preserve">
<g>
	<path fill="#005679" d="M55.516,3.536c1.028,1.638,1.306,3.383,0.837,5.232c-0.471,1.85-1.499,3.291-3.082,4.318
		c-1.693,1.028-3.476,1.307-5.354,0.835c-1.877-0.47-3.331-1.524-4.357-3.162c-0.759-1.201-1.545-2.062-2.359-2.584
		c-0.815-0.52-1.578-0.836-2.284-0.948c-0.816-0.167-1.633-0.142-2.451,0.071c0.603-0.977,1.368-1.899,2.298-2.768
		c0.765-0.759,1.734-1.518,2.909-2.275c1.173-0.758,2.55-1.35,4.132-1.781C50.276-0.706,53.512,0.315,55.516,3.536 M31.575,14.068
		c2.346,0.01,4.566,0.483,6.664,1.416c2.095,0.936,3.919,2.195,5.467,3.78c1.548,1.587,2.768,3.442,3.66,5.569
		c0.891,2.128,1.333,4.417,1.323,6.867c-0.01,2.452-0.47,4.737-1.378,6.857c-0.909,2.121-2.144,3.981-3.704,5.582
		c-1.561,1.602-3.395,2.859-5.499,3.775c-2.104,0.918-4.329,1.372-6.674,1.363l-2.537-0.012c0.812-0.703,1.543-1.642,2.197-2.812
		c0.652-1.167,1.225-2.515,1.717-4.037c0.492-1.521,0.876-3.195,1.154-5.018c0.276-1.824,0.308-9.611,0.046-11.438
		c-0.263-1.824-0.634-3.5-1.113-5.028c-0.48-1.526-1.042-2.876-1.685-4.051c-0.645-1.173-1.368-2.115-2.174-2.827L31.575,14.068z
		 M34.609,59.176c2.611,0.609,4.989,1.572,7.137,2.887c2.145,1.316,4.019,2.877,5.619,4.683c1.597,1.803,2.884,3.836,3.854,6.103
		c0.972,2.262,1.562,4.646,1.77,7.154l-30.118-7.066c-2.611-0.608-5.004-1.57-7.177-2.888c-2.173-1.315-4.061-2.876-5.66-4.68
		c-1.599-1.804-2.884-3.824-3.855-6.06c-0.972-2.24-1.563-4.638-1.769-7.199l30.117,7.065L34.609,59.176L34.609,59.176z
		 M17.113,49.223c-2.399-0.012-4.635-0.481-6.703-1.418c-2.069-0.933-3.878-2.207-5.427-3.82c-1.549-1.611-2.769-3.48-3.661-5.609
		C0.43,36.247-0.01,33.958,0,31.507c0.01-2.451,0.468-4.736,1.377-6.857s2.144-3.965,3.706-5.54c1.561-1.572,3.38-2.816,5.456-3.735
		c2.076-0.917,4.316-1.373,6.715-1.363l2.864,0.011c-1.595,1.411-2.905,3.694-3.932,6.848c-1.026,3.156-1.548,6.721-1.564,10.694
		c-0.016,4.032,0.478,7.628,1.479,10.791c1,3.164,2.293,5.457,3.875,6.879L17.113,49.223z"/>
	<path fill="#C2A43A" d="M34.9,62.439c0.24,0.248,0.539,0.557,0.798,0.557c0.009,0,0.018,0,0.026-0.002
		c0.095-0.008,0.174-0.057,0.234-0.145c0.06-0.084,0.062-0.184,0.008-0.271c-0.192-0.318-1.072-0.535-1.276-0.51
		c-0.036,0.005-0.064,0.031-0.07,0.065c-0.006,0.035,0.012,0.07,0.044,0.087C34.708,62.241,34.806,62.343,34.9,62.439"/>
	<path fill="#C2A43A" d="M25.2,62.154c0.315,0.146,0.45,0.437,0.507,0.691c-0.174-0.07-0.345-0.173-0.513-0.271
		c-0.057-0.033-0.113-0.066-0.168-0.1c-0.204-0.115-0.386-0.225-0.554-0.33c-0.049-0.029-0.105-0.062-0.161-0.09
		c-0.096-0.053-0.196-0.104-0.268-0.172C24.448,61.932,24.862,61.999,25.2,62.154 M48.915,72.768
		c-0.019,0.012-0.082,0.021-0.287-0.184l-0.021-0.021c-0.511-0.502-1.439-1.42-1.456-2.143c0.007,0.007,0.016,0.016,0.023,0.021
		c0.248,0.22,0.533,0.146,0.785,0.08c0.208-0.055,0.404-0.105,0.563,0.004c0.148,0.102,0.123,0.287,0.069,0.56
		c-0.024,0.122-0.047,0.235-0.042,0.341c0.01,0.207,0.064,0.426,0.166,0.686c0.024,0.062,0.057,0.13,0.091,0.195
		c0.064,0.127,0.129,0.256,0.138,0.373C48.948,72.719,48.936,72.754,48.915,72.768 M32.923,69.232c-0.004-0.021,0-0.023,0.002-0.026
		c0.004-0.005,0.044-0.047,0.223-0.047c0.011,0,0.023,0,0.035,0c0.383,0.012,0.786,0.052,1.196,0.12
		c0.479,0.08,0.93,0.188,1.341,0.322c0.025,0.008,0.061,0.018,0.104,0.027c0.152,0.041,0.508,0.137,0.564,0.264
		c0.007,0.017,0.012,0.037-0.005,0.07c-0.042,0.084-0.407,0.03-0.527,0.014c-0.057-0.011-0.106-0.018-0.139-0.021
		c-0.501-0.036-0.913-0.09-1.294-0.168c-0.446-0.095-0.896-0.229-1.338-0.412c-0.055-0.021-0.122-0.058-0.148-0.104
		C32.93,69.257,32.925,69.244,32.923,69.232L32.923,69.232z M20.373,58.172c0.126,0.064,0.258,0.133,0.393,0.199
		c0.553,0.275,1.179,0.587,1.555,1.008c0.405,0.455,1.028,1.35,1.171,2.045c-0.189-0.091-0.589-0.359-0.714-0.458
		c-0.255-0.198-0.467-0.476-0.672-0.743c-0.173-0.225-0.352-0.459-0.56-0.649c-0.058-0.056-0.117-0.107-0.176-0.158
		c-0.7-0.617-1.506-1.146-2.285-1.651c-0.324-0.213-0.66-0.432-0.978-0.65c-0.027-0.021-0.061-0.021-0.088-0.002
		c-0.028,0.016-0.043,0.048-0.039,0.078c0.08,0.627,0.564,0.92,1.033,1.205c0.102,0.062,0.204,0.123,0.302,0.188
		c0.032,0.021,0.08,0.051,0.137,0.086c0.232,0.146,0.854,0.527,0.815,0.729c-0.005,0.027-0.016,0.033-0.021,0.035
		c-0.076,0.032-0.288-0.054-0.625-0.262c-0.028-0.02-0.052-0.031-0.069-0.041c-0.889-0.513-1.994-1.15-2.895-1.973
		c-0.174-0.158-0.331-0.303-0.474-0.458c-0.06-0.064-0.115-0.138-0.168-0.207c-0.062-0.083-0.127-0.169-0.202-0.246
		c-0.271-0.279-0.484-0.62-0.614-0.986c-0.063-0.181-0.109-0.37-0.153-0.557c-0.009-0.034-0.018-0.069-0.026-0.103l-0.627-0.147
		c0.054,0.161,0.098,0.33,0.14,0.495c0.047,0.188,0.097,0.383,0.164,0.57c0.179,0.5,0.472,0.916,0.982,1.391
		c0.108,0.102,0.214,0.201,0.321,0.303c0.328,0.312,0.666,0.635,1.038,0.923c0.584,0.45,1.193,0.853,1.928,1.314
		c0.07,0.045,0.146,0.089,0.224,0.135c0.179,0.103,0.363,0.208,0.494,0.329c0.047,0.044,0.07,0.109,0.068,0.123
		c0,0-0.015,0.008-0.062,0c-0.129-0.023-0.281-0.104-0.428-0.184c-0.079-0.045-0.158-0.086-0.229-0.117l-0.222-0.099
		c-0.379-0.161-0.771-0.331-1.143-0.522c-0.582-0.301-1.186-0.59-1.77-0.869c-0.913-0.438-1.856-0.889-2.739-1.396
		c-0.711-0.41-1.595-0.979-2.123-1.785l-0.017-0.023c-0.161-0.244-0.327-0.497-0.332-0.785c-0.001-0.096,0.025-0.188,0.054-0.279
		c0.033-0.111,0.067-0.233,0.048-0.365l-0.955-0.226c0.157,0.216,0.253,0.521,0.257,0.862c0,0.045,0.004,0.096,0.007,0.148
		c0.006,0.08,0.011,0.166,0.008,0.244c-0.061-0.062-0.124-0.127-0.186-0.188c-0.044-0.043-0.088-0.085-0.13-0.129
		c-0.068-0.068-0.135-0.139-0.202-0.211l-0.094-0.098c-0.116-0.121-0.118-0.289-0.118-0.468l-0.001-0.078
		c-0.001-0.05,0.005-0.125,0.034-0.188l-5-1.174c0.022,0.289,0.053,0.574,0.086,0.859c0.157,0.096,0.32,0.18,0.481,0.26
		c0.136,0.068,0.277,0.143,0.411,0.219c0.129,0.074,0.239,0.15,0.336,0.229c0.217,0.179,0.367,0.369,0.445,0.575
		c0.015,0.037,0.028,0.079,0.023,0.116c-0.005,0.038-0.021,0.045-0.028,0.049c-0.066,0.026-0.229-0.035-0.309-0.091
		c-0.083-0.059-0.171-0.102-0.256-0.141l-0.085-0.041c-0.247-0.121-0.481-0.266-0.698-0.401l-0.198-0.13
		c-0.013-0.008-0.026-0.016-0.04-0.023c0.03,0.208,0.061,0.417,0.096,0.622c0.755,0.466,1.457,0.851,2.45,0.957
		c0.895,0.099,1.387,0.538,1.956,1.047c0.228,0.201,0.462,0.412,0.739,0.616c0.545,0.398,1.129,0.805,1.786,1.236
		c0.311,0.205,0.622,0.406,0.935,0.604c0.157,0.101,0.314,0.199,0.471,0.297c0.033,0.021,0.079,0.042,0.127,0.063
		c0.056,0.025,0.173,0.078,0.184,0.107c0,0-0.001,0-0.001,0.002c-0.035,0.068-0.221,0.057-0.332,0.049l-0.068-0.004
		c-0.08-0.004-0.173-0.026-0.264-0.052c-0.034-0.01-0.066-0.018-0.098-0.024c-0.094-0.021-0.189-0.047-0.282-0.071
		c-0.203-0.054-0.412-0.108-0.627-0.134c-0.991-0.109-1.733-0.09-2.484,0.07c-0.164,0.034-0.329,0.064-0.493,0.092
		c-0.563,0.1-1.147,0.199-1.644,0.543c-0.104,0.072-0.202,0.144-0.298,0.215c-0.081,0.059-0.158,0.113-0.236,0.168
		c0.096,0.205,0.197,0.404,0.299,0.605c0.023-0.015,0.05-0.029,0.07-0.041c0.177-0.104,0.258-0.152,0.474-0.351
		c0.047-0.043,0.085-0.086,0.123-0.129c0.065-0.074,0.121-0.14,0.221-0.189c0.168-0.084,0.363-0.093,0.571-0.101
		c0.153-0.008,0.311-0.016,0.462-0.055c0.126-0.031,0.241-0.074,0.353-0.115c0.201-0.076,0.392-0.147,0.623-0.147h0.002
		c0.124,0,0.226,0.024,0.335,0.052c0.118,0.028,0.24,0.059,0.394,0.061c0.149,0,0.288-0.018,0.427-0.037
		c0.123-0.016,0.25-0.031,0.373-0.034c0.558-0.012,1.087,0.082,1.648,0.181c0.107,0.021,0.216,0.037,0.324,0.056
		c0.384,0.062,0.78,0.125,1.146,0.257c0.232,0.081,0.478,0.171,0.718,0.28l0.043,0.02c0.01,0.005,0.019,0.007,0.028,0.013
		c-0.069,0.006-0.133,0.021-0.197,0.035c-0.087,0.021-0.17,0.039-0.25,0.032c-0.195-0.015-0.405-0.021-0.619-0.03
		c-0.376-0.017-0.766-0.029-1.104-0.084c-0.033-0.009-0.065,0.008-0.082,0.035s-0.016,0.064,0.004,0.092
		c0.288,0.397,0.87,0.521,1.35,0.597c-0.006,0.001-0.012,0.001-0.016,0.003c-0.19,0.02-0.389,0.051-0.625,0.102
		c-0.274,0.055-0.549,0.127-0.814,0.194c-0.122,0.032-0.245,0.063-0.367,0.094C11.322,61.654,10.33,62,9.284,62.477
		c-0.104,0.047-0.276,0.146-0.492,0.268c-0.157,0.088-0.351,0.195-0.556,0.307c0.105,0.156,0.214,0.311,0.323,0.463
		c1.163-0.549,2.36-1.076,3.601-1.438l0.15-0.043c0.629-0.187,1.281-0.378,1.923-0.378h0.001c0.253,0,0.514,0.085,0.767,0.164
		c0.317,0.103,0.644,0.207,0.968,0.15c0.224-0.037,0.409-0.107,0.589-0.175c0.304-0.114,0.564-0.214,0.958-0.147
		c0.606,0.104,1.193,0.381,1.76,0.648l0.098,0.046c0.163,0.077,0.326,0.156,0.488,0.234c0.517,0.252,1.052,0.512,1.607,0.707
		c0.435,0.151,0.601,0.329,0.59,0.387c-0.006,0.034-0.12,0.114-0.557,0.099c-0.343-0.013-0.691-0.043-1.059-0.076
		c-1.178-0.104-2.397-0.215-3.433,0.319c-0.618,0.319-1.288,0.483-2.045,0.499c-0.125,0.002-0.339-0.027-0.568-0.061
		c-0.444-0.064-0.948-0.137-1.178-0.034c-0.227,0.103-0.239,0.209-0.234,0.349c0.003,0.063,0.007,0.129-0.026,0.223
		c-0.09,0.248-0.137,0.285-0.332,0.443l-0.142,0.115c-0.428,0.352-0.831,0.686-1.096,1.227c0.342,0.326,0.697,0.644,1.06,0.951
		c0.031-0.149,0.067-0.3,0.116-0.445c0.06-0.18,0.041-0.305-0.058-0.368c-0.039-0.025-0.08-0.035-0.123-0.035
		c-0.044,0-0.09,0.011-0.13,0.022c-0.046,0.015-0.095,0.028-0.118,0.025c-0.003-0.021,0.014-0.119,0.351-0.464l0.031-0.031
		c0.136-0.145,0.319-0.327,0.532-0.465c0.025-0.017,0.088-0.042,0.148-0.065c0.165-0.062,0.35-0.136,0.414-0.254
		c0.053-0.099,0.022-0.201-0.003-0.283c-0.012-0.041-0.03-0.096-0.018-0.108c0.128-0.161,0.414-0.25,0.694-0.224
		c0.134,0.017,0.253,0.035,0.367,0.055c0.259,0.044,0.503,0.084,0.853,0.053c0.597-0.053,1.16-0.279,1.531-0.445
		c0.097-0.043,0.191-0.088,0.284-0.133c0.372-0.18,0.723-0.348,1.168-0.348h0.007c0.79,0,0.856,0.111,0.858,0.111
		c-0.016,0.136-0.562,0.176-0.796,0.191c-0.152,0.012-0.272,0.021-0.335,0.04c-0.13,0.042-0.282,0.105-0.313,0.224
		c-0.011,0.045-0.009,0.111,0.06,0.186c0.074,0.077,0.181,0.094,0.275,0.1c0.586,0.028,1.15-0.14,1.693-0.304
		c0.286-0.086,0.581-0.175,0.873-0.229c0.885-0.172,1.832-0.164,2.652-0.143c0.223,0.008,0.5,0.016,0.722,0.127
		c0.108,0.057,0.267,0.199,0.271,0.305c0.001,0.021-0.004,0.058-0.063,0.096c-0.04,0.023-0.091,0.011-0.169-0.016
		c-0.03-0.012-0.061-0.021-0.089-0.024c-0.155-0.033-0.317-0.041-0.473-0.05h-0.026c-0.47-0.022-0.945,0.011-1.404,0.043
		l-0.063,0.005c-1.763,0.122-3.617,0.347-5.227,1.13c-0.25,0.122-0.662,0.369-0.891,0.559c-0.093,0.076-0.172,0.188-0.255,0.309
		c-0.123,0.175-0.25,0.354-0.411,0.396c-0.2,0.049-0.368-0.057-0.562-0.177c-0.242-0.149-0.516-0.319-0.88-0.151
		c-0.385,0.178-0.582,0.561-0.736,0.901c-0.024,0.054-0.047,0.106-0.071,0.165c-0.029,0.068-0.058,0.139-0.089,0.207
		c0.162,0.128,0.324,0.255,0.49,0.38c0.04-0.067,0.08-0.137,0.122-0.202c0.028-0.043,0.069-0.121,0.117-0.213
		c0.09-0.17,0.298-0.564,0.39-0.598c0.084-0.03,0.344,0.097,0.533,0.188c0.174,0.086,0.339,0.166,0.456,0.185
		c0.494,0.067,0.694-0.144,0.951-0.411c0.069-0.072,0.144-0.15,0.232-0.23c0.533-0.49,1.174-0.793,1.787-1.048
		c1.127-0.467,2.368-0.75,3.792-0.864c1.367-0.11,2.222-0.058,3.384,0.562c0.575,0.309,0.871,0.204,1.28,0.062
		c0.133-0.045,0.283-0.101,0.461-0.144c0.463-0.11,0.782,0.074,1.185,0.312L28.3,66.23c0.441,0.259,0.913,0.438,1.37,0.607
		c0.22,0.084,0.448,0.17,0.67,0.264c0.247,0.105,0.444,0.199,0.622,0.299c0.022,0.012,0.05,0.024,0.082,0.041
		c0.104,0.051,0.313,0.154,0.342,0.246c-0.047,0.027-0.193,0.043-0.438,0.039c-0.037,0-0.068,0-0.087,0.002
		c-0.041,0.002-0.081,0.004-0.122,0.008c-0.1,0.009-0.203,0.017-0.294,0.006c-0.438-0.051-0.872-0.141-1.294-0.229
		c-0.255-0.054-0.515-0.117-0.765-0.181c-0.324-0.08-0.658-0.163-0.992-0.224c-0.443-0.082-0.714-0.004-1.027,0.084
		c-0.143,0.041-0.29,0.084-0.469,0.115c-0.319,0.056-0.617-0.069-0.931-0.203c-0.147-0.062-0.298-0.127-0.452-0.168
		c-0.548-0.154-0.64-0.068-0.902,0.28l-0.089,0.118c-0.396,0.518-0.896,0.424-1.475,0.316c-0.229-0.043-0.465-0.086-0.703-0.092
		c-0.977-0.021-1.588,0.42-1.903,1.395c-0.076,0.234-0.116,0.477-0.155,0.706c-0.076,0.448-0.147,0.875-0.469,1.241
		c-0.172,0.195-0.376,0.341-0.595,0.471c0.234,0.104,0.471,0.204,0.71,0.303c0.019-0.013,0.039-0.021,0.058-0.031
		c0.447-0.311,0.726-0.767,0.996-1.209c0.04-0.063,0.079-0.127,0.118-0.191c0.147-0.237,0.312-0.483,0.521-0.688
		c0.119-0.115,0.258-0.188,0.406-0.265c0.12-0.062,0.244-0.125,0.36-0.216c0.04-0.031,0.086-0.069,0.118-0.122
		c0.04-0.069,0.047-0.146,0.018-0.21c-0.031-0.062-0.096-0.11-0.175-0.122c-0.062-0.011-0.122,0.003-0.171,0.014
		c-0.338,0.078-0.632,0.233-0.958,0.509c-0.028,0.021-0.079,0.084-0.16,0.182c-0.004,0.005-0.007,0.01-0.011,0.015
		c0.015-0.103,0.037-0.204,0.067-0.303c0.057-0.197,0.134-0.419,0.266-0.57c0.322-0.366,0.729-0.3,1.161-0.229
		c0.087,0.017,0.175,0.029,0.263,0.041c0.16,0.021,0.339,0.062,0.513,0.104c0.289,0.068,0.561,0.134,0.768,0.104
		c0.468-0.062,0.976-0.461,1.056-0.973c0.107,0.043,0.214,0.09,0.323,0.135c0.293,0.127,0.596,0.26,0.899,0.317
		c0.195,0.039,0.347,0.015,0.523-0.016l0.058-0.011c0.136-0.021,0.281-0.03,0.422-0.039c0.058-0.006,0.115-0.008,0.171-0.014
		c0.377-0.029,0.868-0.051,1.334,0.067c0.19,0.049,0.379,0.12,0.562,0.188c0.153,0.061,0.312,0.119,0.474,0.166
		c0.324,0.098,0.661,0.146,1.001,0.133c0.167-0.002,0.331-0.033,0.488-0.065c0.163-0.032,0.316-0.063,0.471-0.063
		c0.034,0,0.081-0.002,0.14-0.004c0.274-0.014,0.915-0.039,1.11,0.146c0.035,0.032,0.052,0.067,0.053,0.114
		c0,0.066-0.079,0.125-0.154,0.15c-0.222,0.079-0.468,0.12-0.72,0.158c-0.194,0.03-0.372,0.07-0.56,0.114l-0.096,0.022
		c-0.51,0.113-1.047,0.118-1.553,0.014c-0.302-0.062-0.375,0.104-0.391,0.156c-0.05,0.166,0.08,0.373,0.281,0.453
		c0.414,0.161,0.87,0.188,1.262,0.191c0.143,0.001,0.288-0.001,0.432-0.004c0.33-0.004,0.672-0.01,1.002,0.029
		c0.087,0.012,0.186,0.026,0.257,0.078c0.048,0.035,0.078,0.096,0.079,0.154c0,0.033-0.008,0.078-0.052,0.111
		c-0.215,0.16-0.621,0.166-0.918,0.17l-0.104,0.001c-0.346,0.008-0.711-0.013-1.189-0.063c-0.265-0.027-0.529-0.065-0.793-0.104
		c-0.459-0.064-0.936-0.133-1.408-0.15c-0.885-0.037-1.705,0.027-2.738,0.211c-0.665,0.117-1.28,0.42-1.875,0.711
		c-0.14,0.068-0.28,0.137-0.42,0.201c-0.266,0.127-0.464,0.299-0.656,0.465c-0.098,0.086-0.198,0.172-0.305,0.252
		c-0.252,0.186-0.473,0.344-0.68,0.485c0.299,0.097,0.6,0.185,0.904,0.269c0.149-0.108,0.292-0.229,0.428-0.348
		c0.22-0.191,0.428-0.376,0.674-0.516c0.234-0.133,0.485-0.254,0.728-0.37c0.195-0.095,0.389-0.188,0.577-0.289
		c0.768-0.409,1.72-0.453,2.709-0.466c0.601-0.008,1.231,0.062,1.841,0.128c1.081,0.116,2.198,0.237,3.251-0.041
		c0.98-0.261,1.736-0.216,2.79-0.04c0.813,0.134,1.409,0.036,2.165-0.085l0.154-0.026c0.619-0.099,1.158,0.26,1.678,0.606
		c0.195,0.129,0.397,0.263,0.601,0.37c0.758,0.404,1.529,0.863,2.356,1.402c0.412,0.27,0.82,0.543,1.229,0.816
		c0.506,0.341,1.029,0.691,1.553,1.027c0.103,0.064,0.211,0.129,0.321,0.191c0.193,0.108,0.392,0.223,0.555,0.354
		c0.1,0.082,0.258,0.263,0.295,0.387c-0.008,0-0.021-0.003-0.045-0.014l-0.17-0.067c-0.227-0.09-0.461-0.185-0.67-0.31
		c-0.198-0.117-0.395-0.248-0.584-0.373l-0.165-0.107c-0.648-0.425-1.382-0.904-2.128-1.279c-0.542-0.271-1.113-0.418-1.667-0.559
		c-0.254-0.064-0.518-0.132-0.776-0.21C39.19,72.74,38.89,72.62,38.6,72.504c-0.53-0.214-1.078-0.436-1.639-0.49l-0.103-0.013
		c-0.548-0.063-0.938-0.086-1.073,0.009c-0.151,0.104-0.145,0.246-0.139,0.359c0.004,0.088,0.008,0.165-0.046,0.234
		c-0.093,0.123-0.356,0.205-0.567,0.271c-0.106,0.034-0.206,0.065-0.282,0.101c-0.32,0.146-0.537,0.313-0.788,0.508l-0.137,0.104
		c-0.551,0.422-1.201,0.539-2.106,0.377c-0.464-0.082-0.763-0.047-0.967,0.115c-0.157,0.127-0.25,0.325-0.298,0.623l0.934,0.219
		c-0.001-0.093-0.022-0.203-0.06-0.348c0.091,0.014,0.185,0.028,0.281,0.045c0.565,0.089,1.206,0.19,1.741,0.03
		c0.4-0.119,0.705-0.369,0.999-0.61c0.161-0.134,0.327-0.271,0.507-0.384c0.276-0.176,0.548-0.284,0.809-0.33
		c0.067-0.014,0.193-0.004,0.326,0.008c0.263,0.021,0.537,0.04,0.657-0.071c0.155-0.143,0.182-0.323,0.072-0.497
		c-0.018-0.027-0.038-0.053-0.06-0.074c0.006,0.002,0.013,0.004,0.018,0.006c0.037,0.013,0.073,0.022,0.106,0.031
		c0.077,0.015,0.154,0.021,0.232,0.028c0.092,0.011,0.179,0.019,0.262,0.039c0.109,0.03,0.219,0.074,0.325,0.115l0.098,0.039
		c0.519,0.202,1.068,0.356,1.553,0.493l0.315,0.09c0.887,0.246,1.804,0.502,2.623,0.965c0.361,0.203,0.705,0.439,1.037,0.67
		c0.536,0.368,1.091,0.75,1.731,1.002c0.248,0.098,0.509,0.168,0.763,0.236c0.146,0.039,0.291,0.078,0.432,0.121
		c0.205,0.062,0.472,0.148,0.73,0.256l0.052,0.021c0.189,0.078,0.426,0.175,0.516,0.349c0.035,0.065,0.034,0.164-0.022,0.205
		c-0.041,0.026-0.104,0.026-0.176,0.024c-0.049-0.002-0.099-0.004-0.15-0.004c-0.124-0.004-0.252-0.007-0.375-0.021
		c-0.074-0.01-0.139-0.021-0.199-0.037c-0.108-0.026-0.222-0.072-0.331-0.116c-0.049-0.021-0.099-0.041-0.148-0.06
		c-0.169-0.063-0.338-0.139-0.503-0.211c-0.142-0.062-0.285-0.125-0.428-0.182c-0.344-0.136-0.708-0.354-1.059-0.561
		c-0.29-0.172-0.589-0.353-0.874-0.479c-0.507-0.231-1.113-0.489-1.766-0.646c-0.198-0.049-0.396-0.07-0.588-0.094
		c-0.091-0.011-0.181-0.021-0.272-0.033c-0.267-0.037-0.62-0.084-0.981-0.103c-0.046-0.002-0.187-0.01-0.248,0.097
		c-0.04,0.068-0.027,0.164,0.03,0.229c0.043,0.049,0.099,0.074,0.154,0.099c0.201,0.082,0.426,0.13,0.731,0.156
		c0.222,0.021,0.41,0.047,0.607,0.085c0.077,0.018,0.154,0.029,0.232,0.046c0.32,0.062,0.65,0.125,0.957,0.233
		c0.598,0.219,1.084,0.513,1.597,0.822c0.35,0.213,0.712,0.432,1.116,0.627c1.093,0.529,2.048,0.934,3.008,1.271
		c0.12,0.043,0.297,0.09,0.501,0.146c0.521,0.14,1.285,0.345,1.696,0.631l1.244,0.293c-0.175-0.18-0.35-0.358-0.526-0.53
		c-0.328-0.321-0.635-0.664-0.933-0.996c-0.196-0.219-0.392-0.437-0.594-0.649c-0.215-0.229-0.484-0.381-0.745-0.527
		c-0.108-0.062-0.216-0.123-0.32-0.188c-0.196-0.125-0.382-0.291-0.561-0.45c-0.147-0.129-0.299-0.266-0.458-0.379
		c-0.032-0.024-0.065-0.05-0.098-0.07c-0.099-0.068-0.194-0.135-0.268-0.219l-0.024-0.027c-0.099-0.113-0.202-0.23-0.338-0.322
		c-0.308-0.199-0.605-0.425-0.894-0.643c-0.278-0.211-0.566-0.426-0.864-0.625c-0.297-0.196-0.605-0.387-0.902-0.569
		c-0.33-0.203-0.671-0.413-0.997-0.634c-0.726-0.49-1.507-0.941-2.262-1.379c-0.279-0.161-0.557-0.321-0.833-0.483
		c-0.196-0.116-0.389-0.237-0.582-0.36c-0.294-0.187-0.597-0.379-0.912-0.545c-0.329-0.176-0.686-0.312-1.03-0.441
		c-0.181-0.069-0.36-0.139-0.536-0.211c-1.167-0.489-2.293-1.018-3.345-1.566l-0.179-0.095c-0.626-0.327-1.218-0.64-1.88-0.896
		c-0.158-0.062-0.316-0.122-0.474-0.186c-0.556-0.214-1.132-0.438-1.679-0.695c-0.376-0.178-0.751-0.386-1.115-0.588
		c-0.657-0.365-1.337-0.744-2.056-0.958c-1.218-0.363-2.403-0.896-3.55-1.407c-0.21-0.095-0.42-0.188-0.631-0.28
		c-2.708-1.197-5.588-2.532-8.291-4.174c-1.366-0.83-2.535-1.673-3.575-2.572c-0.194-0.168-0.397-0.33-0.593-0.487
		c-0.24-0.192-0.487-0.392-0.719-0.599c-0.319-0.287-0.614-0.617-0.898-0.937c-0.104-0.114-0.207-0.229-0.311-0.343
		c-0.105-0.116-0.152-0.311-0.123-0.475c0.336,0.303,0.651,0.621,0.957,0.931c0.458,0.463,0.931,0.938,1.478,1.358
		c1.082,0.832,2.32,1.625,3.782,2.43c2.39,1.312,4.914,2.453,7.357,3.558l0.795,0.36c0.618,0.279,1.234,0.562,1.85,0.844
		c0.777,0.355,1.555,0.713,2.334,1.062c0.477,0.215,0.955,0.418,1.443,0.625c0.01,0.006,0.021,0.008,0.031,0.008
		c0.224,0,0.469,0.173,0.704,0.34c0.129,0.089,0.25,0.176,0.366,0.23c0.384,0.188,0.786,0.315,1.174,0.441
		c0.223,0.07,0.453,0.146,0.676,0.229c0.144,0.057,0.286,0.123,0.423,0.19c0.158,0.08,0.322,0.16,0.492,0.218
		c0.569,0.196,1.082,0.489,1.575,0.772c0.171,0.099,0.341,0.194,0.514,0.29c0.183,0.1,0.349,0.186,0.506,0.259
		c0.552,0.259,1.123,0.491,1.675,0.718c1.067,0.438,2.168,0.889,3.158,1.531c0.779,0.505,1.648,0.973,2.658,1.43
		c0.31,0.143,0.629,0.262,0.938,0.381c0.112,0.041,0.225,0.084,0.336,0.127c0.274,0.106,0.527,0.289,0.771,0.469
		c0.121,0.088,0.243,0.177,0.366,0.256c1.209,0.773,2.343,1.636,3.401,2.451c0.213,0.162,0.426,0.326,0.639,0.488
		c1.143,0.875,2.324,1.778,3.377,2.818c0.231,0.229,0.457,0.479,0.676,0.721c0.228,0.248,0.462,0.508,0.701,0.74
		c0.027,0.025,0.056,0.053,0.088,0.081c0.177,0.158,0.306,0.29,0.24,0.44c-0.005,0.013-0.011,0.022-0.018,0.035L52.989,80
		c-0.169-2.033-0.593-3.984-1.264-5.857c-0.148-0.101-0.298-0.199-0.447-0.295c-0.402-0.262-0.817-0.531-1.181-0.854
		c-0.442-0.393-0.954-0.93-0.987-1.624c-0.007-0.144,0.007-0.296,0.022-0.442c0.044-0.443,0.089-0.9-0.482-1.089
		c-0.147-0.048-0.329-0.017-0.504,0.015c-0.24,0.043-0.468,0.082-0.6-0.064c-0.268-0.305,0.088-1.188,0.222-1.521l0.029-0.07
		c0.045-0.114,0.092-0.229,0.142-0.346c0.039-0.096,0.078-0.188,0.115-0.283c-0.123-0.15-0.249-0.301-0.375-0.45
		c-0.062,0.188-0.136,0.379-0.205,0.555l-0.024,0.062c-0.028,0.074-0.056,0.146-0.083,0.222c-0.053,0.142-0.105,0.28-0.165,0.419
		c-0.006,0.014-0.012,0.023-0.018,0.038c-0.138-0.229-0.018-0.72,0.089-1.155c0.042-0.171,0.082-0.335,0.109-0.484
		c-0.007-0.01-0.013-0.018-0.02-0.022c-0.212-0.239-0.43-0.474-0.652-0.705c-0.002,0.11,0.015,0.241,0.04,0.388
		c0.03,0.181,0.062,0.366,0.047,0.504l-0.013,0.133c-0.02,0.197-0.039,0.386-0.09,0.582c-0.005,0.02-0.014,0.051-0.025,0.089
		c-0.173,0.591-0.32,1.223-0.09,1.436c0.072,0.067,0.169,0.085,0.291,0.054c-0.004,0.084,0.009,0.164,0.023,0.24
		c0.013,0.07,0.024,0.137,0.024,0.221c0.011,0.058,0.018,0.117,0.025,0.179c0.016,0.125,0.031,0.261,0.087,0.385
		c-0.006,0.003-0.011,0.009-0.016,0.013c-0.464,0.506-0.258,0.781,0.003,1.133c0.068,0.093,0.146,0.195,0.219,0.312
		c0.318,0.504,0.757,0.91,1.183,1.305l0.096,0.088c0.202,0.188,0.414,0.369,0.62,0.543c0.264,0.227,0.536,0.457,0.787,0.703
		c0.181,0.178,0.328,0.385,0.439,0.616c0.062,0.13,0.11,0.255,0.141,0.369c0.012,0.048,0.03,0.095,0.048,0.144
		c0.027,0.07,0.052,0.14,0.06,0.203c0.008,0.066-0.013,0.153-0.075,0.188c-0.227,0.126-0.596-0.339-0.772-0.562
		c-0.027-0.033-0.051-0.062-0.071-0.086c-0.082-0.101-0.161-0.201-0.24-0.306c-0.142-0.188-0.29-0.377-0.457-0.547
		c-0.487-0.487-0.921-0.938-1.319-1.506c-0.329-0.468-0.76-1.005-1.137-1.468c-0.251-0.31-0.481-0.489-0.722-0.685
		c-0.109-0.089-0.226-0.183-0.352-0.292l-0.152-0.137c-0.125-0.111-0.254-0.229-0.392-0.336c-0.165-0.133-0.25-0.256-0.26-0.379
		c-0.005-0.077,0.019-0.129,0.078-0.166c0.056-0.034,0.134-0.049,0.215-0.049c0.109,0,0.223,0.025,0.295,0.067
		c0.022,0.017,0.049,0.019,0.074,0.007c0.023-0.012,0.041-0.031,0.047-0.058c0.077-0.364-0.12-0.703-0.31-1.03
		c-0.088-0.15-0.171-0.294-0.223-0.433c-0.158-0.427-0.235-0.896-0.231-1.396c0.003-0.394,0.101-0.799,0.196-1.191
		c0.071-0.297,0.14-0.602,0.174-0.905c-0.24-0.205-0.485-0.405-0.734-0.603c0.077,0.222,0.131,0.455,0.101,0.723
		c-0.032,0.279-0.072,0.554-0.112,0.816c-0.17,1.146-0.331,2.229,0.31,3.428c-0.367,0.201-0.568,0.438-0.597,0.711
		c-0.062,0.6,0.707,1.213,1.385,1.757c0.281,0.224,0.546,0.437,0.705,0.61c0.288,0.322,0.561,0.666,0.826,0.998
		c0.084,0.104,0.167,0.211,0.252,0.313c0.147,0.185,0.342,0.421,0.55,0.656l0.058,0.062c0.136,0.15,0.264,0.293,0.311,0.479
		c0.008,0.032,0.006,0.046,0.007,0.048c-0.004,0.001-0.021,0.003-0.062-0.016c-0.233-0.096-0.365-0.242-0.532-0.432l-0.04-0.044
		c-0.147-0.164-0.337-0.303-0.521-0.438c-0.069-0.051-0.139-0.102-0.204-0.15c-0.509-0.396-1.017-0.762-1.508-1.083
		c-1.697-1.11-3.301-2.06-4.904-2.897c-0.71-0.371-1.29-0.929-1.723-1.652c-0.414-0.693-0.907-1.27-1.429-1.881l-0.066-0.075
		c-0.519-0.604-0.71-0.878-0.257-1.544c0.238-0.348,0.507-0.682,0.741-0.967c0.038-0.045,0.095-0.102,0.154-0.156
		c0.207-0.198,0.464-0.447,0.36-0.711c-0.094-0.239-0.387-0.316-0.624-0.379c-0.057-0.014-0.11-0.027-0.156-0.043
		c-1.202-0.404-2.5-0.939-2.686-2.188c-0.029-0.191-0.037-0.388-0.039-0.58h-0.014l-0.688-0.162c0,0.145-0.002,0.291-0.005,0.444
		c-0.022,1.474,0.87,1.96,2.146,2.493c1.125,0.468,1.223,0.63,1.232,0.656c0.02,0.07,0.009,0.138-0.033,0.205
		c-0.118,0.189-0.44,0.328-0.62,0.359c-0.139,0.024-0.337,0.077-0.434,0.238c-0.073,0.122-0.066,0.271-0.061,0.38
		c0.014,0.274-0.035,0.713-0.158,0.784c-0.01,0.006-0.041,0.023-0.114-0.023c-0.077-0.051-0.11-0.131-0.149-0.225
		c-0.013-0.029-0.026-0.062-0.041-0.092c-0.06-0.125-0.14-0.244-0.218-0.358l-0.072-0.108c-0.191-0.291-0.385-0.565-0.62-0.896
		l-0.059-0.083c-0.389-0.546-0.791-1.109-1.104-1.711c-0.21-0.404-0.396-0.844-0.576-1.27c-0.136-0.322-0.277-0.656-0.428-0.976
		c-0.022-0.048-0.042-0.099-0.061-0.146l-0.676-0.158c0.009,0.025,0.018,0.052,0.027,0.078c0.033,0.094,0.065,0.185,0.095,0.271
		c0.298,0.896,0.656,1.841,1.251,2.677c0.293,0.412,0.562,0.862,0.825,1.301c0.161,0.268,0.32,0.535,0.487,0.795
		c0.134,0.21,0.241,0.438,0.327,0.634c0.075,0.169,0.151,0.337,0.229,0.505c0.167,0.366,0.34,0.746,0.489,1.124l0.01,0.026
		c0.25,0.63,0.212,0.83,0.167,0.894c-0.012,0.019-0.04,0.039-0.102,0.04c-0.204-0.006-0.459-0.275-0.613-0.438l-0.029-0.031
		c-0.546-0.569-0.646-0.794-0.664-0.867c0.006,0,0.013,0,0.018,0c0.066,0.007,0.165,0.016,0.246-0.053
		c0.062-0.055,0.097-0.143,0.106-0.268c0.02-0.287-0.356-1.014-0.472-1.227c-0.341-0.635-0.855-1.262-1.309-1.812l-0.143-0.175
		c-0.127-0.155-0.21-0.335-0.297-0.524c-0.052-0.113-0.106-0.23-0.171-0.344c-0.103-0.177-0.147-0.375-0.193-0.582
		c-0.029-0.127-0.059-0.258-0.102-0.385c-0.081-0.236-0.216-0.459-0.392-0.643c-0.084-0.088-0.135-0.184-0.189-0.282
		c-0.043-0.077-0.086-0.156-0.147-0.237c-0.18-0.242-0.354-0.479-0.503-0.728l-1.376-0.322c0.022,0.082,0.056,0.17,0.121,0.269
		c0.071,0.111,0.155,0.193,0.236,0.272c0.096,0.093,0.188,0.181,0.263,0.317c0.231,0.421,0.433,0.748,0.654,1.062
		c0.117,0.167,0.212,0.371,0.304,0.568c0.097,0.206,0.198,0.422,0.325,0.594c0.072,0.101,0.158,0.176,0.241,0.248
		c0.11,0.099,0.214,0.188,0.291,0.333c0.25,0.467,0.553,0.9,0.845,1.322c0.157,0.226,0.319,0.459,0.474,0.695
		c0.038,0.062,0.1,0.133,0.164,0.213c0.128,0.152,0.287,0.345,0.304,0.47c0.017,0.131-0.012,0.153-0.07,0.196
		c-0.055,0.043-0.131,0.103-0.158,0.24c-0.041,0.213,0.066,0.467,0.153,0.672l0.038,0.09c0.062,0.151,0.134,0.299,0.199,0.43
		c0.006,0.014,0.019,0.05,0.033,0.094c0.013,0.036,0.023,0.07,0.033,0.1c-0.033-0.009-0.067-0.016-0.101-0.021
		c-0.145-0.029-0.294-0.061-0.421-0.111c-0.156-0.062-0.31-0.144-0.458-0.222c-0.098-0.052-0.197-0.104-0.297-0.151
		c-0.363-0.173-0.744-0.318-1.112-0.461c-0.245-0.094-0.497-0.188-0.742-0.293c-0.353-0.15-0.703-0.307-1.053-0.463
		c-0.418-0.186-0.849-0.379-1.279-0.558c-0.163-0.066-0.335-0.124-0.518-0.185c-0.417-0.142-0.849-0.283-1.148-0.548
		c-0.206-0.182-0.294-0.438-0.387-0.711c-0.093-0.271-0.188-0.549-0.408-0.741c-0.284-0.25-0.617-0.253-0.94-0.253
		c-0.189,0-0.369,0-0.529-0.054c-0.625-0.196-0.873-0.797-1.134-1.434c-0.211-0.51-0.43-1.037-0.864-1.342
		c-0.317-0.223-0.693-0.388-1.057-0.547c-0.284-0.125-0.578-0.256-0.834-0.408c-0.57-0.338-1.152-0.748-1.78-1.248
		c-0.459-0.363-0.778-0.736-0.993-1.162l-0.842-0.196C17.481,56.484,19.016,57.461,20.373,58.172"/>
	<path fill="#C2A43A" d="M33.304,59.818c0.021,0.021,0.05,0.029,0.078,0.021c0.027-0.008,0.049-0.026,0.058-0.056
		c0.082-0.271,0.127-0.551,0.151-0.83l-0.593-0.141c0.008,0.086,0.016,0.17,0.023,0.252C33.04,59.285,33.09,59.602,33.304,59.818"/>
	<path fill="#C2A43A" d="M2.414,38.125c0.031-0.006,0.055-0.027,0.065-0.055c0.159-0.14,0.215-0.341,0.269-0.536
		c0.042-0.151,0.082-0.294,0.167-0.402c0.103-0.131,0.216-0.257,0.327-0.379c0.145-0.159,0.294-0.323,0.425-0.505
		c0.32-0.447,0.525-0.865,0.627-1.276c0.026-0.105,0.051-0.21,0.076-0.316c0.087-0.379,0.179-0.771,0.339-1.131
		c0.085-0.191,0.167-0.292,0.281-0.431c0.031-0.038,0.065-0.079,0.102-0.125c0.074-0.094,0.13-0.188,0.184-0.281
		c0.056-0.097,0.108-0.187,0.181-0.277c0.249-0.312,0.55-0.44,0.958-0.547c0.128-0.033,0.258-0.058,0.383-0.079
		c0.305-0.057,0.62-0.113,0.909-0.313c0.208-0.144,0.367-0.333,0.523-0.515c0.059-0.07,0.118-0.14,0.179-0.207
		c0.168-0.182,0.531-0.2,0.796-0.14c0.28,0.063,0.516,0.25,0.614,0.487c0.256,0.612-0.325,0.945-1.052,1.287
		c-0.099,0.046-0.19,0.089-0.27,0.13c-0.189,0.1-0.336,0.235-0.479,0.369c-0.159,0.147-0.309,0.288-0.506,0.364
		c-0.083,0.032-0.223,0.017-0.346,0.003c-0.145-0.017-0.268-0.03-0.35,0.019c-0.117,0.067-0.18,0.144-0.194,0.231
		c-0.021,0.136,0.083,0.253,0.183,0.366c0.175,0.197,0.238,0.298,0.107,0.442c-0.162,0.178-0.439,0.258-0.732,0.344
		c-0.271,0.078-0.55,0.159-0.743,0.326C5.424,34.992,5.42,35,5.394,35.055c-0.036,0.074-0.118,0.247-0.172,0.3
		c-0.072,0.071-0.18,0.135-0.285,0.196c-0.084,0.048-0.172,0.1-0.244,0.156c-0.661,0.52-1.12,1.239-1.565,1.934
		c-0.039,0.062-0.078,0.132-0.118,0.206c-0.107,0.196-0.229,0.418-0.386,0.511c-0.115,0.068-0.156,0.016-0.171-0.004
		C2.394,38.277,2.399,38.144,2.414,38.125 M0.865,37.13c0.008-0.227,0.015-0.452,0.034-0.682c0.036-0.443,0.134-0.848,0.238-1.274
		c0.029-0.119,0.059-0.24,0.087-0.362c0.035-0.152,0.061-0.306,0.085-0.454C1.356,34.08,1.4,33.818,1.5,33.555
		c0.083-0.22,0.185-0.477,0.311-0.725c0.114-0.225,0.255-0.425,0.383-0.593c-0.013,0.057-0.028,0.112-0.045,0.171
		c-0.021,0.077-0.043,0.155-0.059,0.233c-0.036,0.168-0.069,0.337-0.103,0.504c-0.063,0.322-0.129,0.654-0.209,0.982
		c-0.195,0.8-0.252,1.634-0.306,2.439c-0.013,0.194-0.026,0.388-0.041,0.581c-0.001,0.001-0.002,0.034-0.002,0.034
		c-0.026,0.449-0.032,0.903-0.037,1.348c0.263,0.609,0.553,1.198,0.87,1.766c0.2-0.671,0.646-1.255,1.082-1.823
		c0.075-0.098,0.149-0.194,0.222-0.291c0.102-0.136,0.201-0.27,0.298-0.402c0.809-1.092,1.508-2.037,2.843-2.685
		c0.107-0.051,0.236-0.099,0.375-0.149c0.425-0.156,0.908-0.333,1-0.731c0.024-0.1-0.03-0.189-0.079-0.269
		c-0.066-0.111-0.089-0.163-0.042-0.226c0.046-0.062,0.241-0.041,0.368-0.027c0.097,0.011,0.188,0.02,0.257,0.009
		c0.54-0.095,1.225-0.469,1.773-0.769l0.192-0.105c0.708-0.382,1.051-1.06,0.877-1.729c-0.18-0.691-0.614-1.218-1.191-1.442
		c-0.56-0.219-1.186-0.135-1.761,0.236c-0.253,0.164-0.461,0.418-0.663,0.665c-0.231,0.283-0.45,0.55-0.724,0.681
		c-0.187,0.089-0.375,0.076-0.573,0.064c-0.23-0.016-0.469-0.031-0.73,0.104c-1.086,0.557-1.474,1.8-1.816,2.897
		c-0.054,0.171-0.106,0.34-0.159,0.499c-0.153,0.459-0.448,0.833-0.733,1.195c-0.438,0.553-0.889,1.125-0.789,1.98
		c-0.106,0.012-0.195,0.013-0.24-0.027c-0.038-0.031-0.056-0.103-0.054-0.208c0.002-0.164,0.037-0.324,0.074-0.493
		c0.03-0.138,0.06-0.278,0.072-0.422c0.011-0.129,0.021-0.258,0.03-0.386c0.038-0.503,0.078-1.023,0.181-1.526
		c0.229-1.118,0.704-2.153,1.412-3.078C4.177,31.3,4.641,30.79,5.09,30.296c0.407-0.448,0.829-0.911,1.21-1.394
		c0.448-0.568,0.906-0.889,1.435-1.26c0.172-0.121,0.378-0.232,0.576-0.339c0.285-0.153,0.58-0.313,0.807-0.513
		c0.436-0.384,0.499-0.969,0.561-1.535c0.053-0.492,0.109-1.002,0.409-1.373c0.166-0.204,0.446-0.418,0.744-0.645
		c0.562-0.43,1.2-0.917,1.253-1.509c0.012-0.126-0.042-0.239-0.093-0.348c-0.048-0.101-0.094-0.197-0.072-0.281
		c0.044-0.172,0.085-0.192,0.159-0.227c0.054-0.025,0.123-0.058,0.201-0.141c0.262-0.278,0.525-0.465,0.804-0.665
		c0.123-0.086,0.248-0.175,0.379-0.276c0.414-0.317,0.677-0.704,0.807-1.182c0.14-0.515,0.125-0.562-0.257-0.838
		c-0.185-0.134-0.46-0.214-0.703-0.284c-0.056-0.016-0.11-0.032-0.163-0.048c0.832-0.618,2.426-1.89,1.905-3.295
		c-0.213,0.026-0.424,0.055-0.635,0.088c0.082,0.116,0.151,0.238,0.18,0.364c0.117,0.528-0.292,0.926-0.654,1.276l-0.112,0.109
		c-0.512,0.508-1.052,1.06-1.522,1.746c-0.013,0.019-0.018,0.042-0.013,0.065c0.006,0.022,0.021,0.042,0.041,0.052
		c0.18,0.097,0.404,0.151,0.622,0.203c0.311,0.075,0.604,0.144,0.67,0.32c0.049,0.132-0.028,0.342-0.23,0.622
		c-0.186,0.258-0.529,0.468-0.893,0.689c-0.583,0.357-1.185,0.726-1.264,1.361c-0.02,0.162,0.023,0.298,0.063,0.419
		c0.049,0.156,0.093,0.29,0.012,0.463c-0.077,0.165-0.249,0.273-0.415,0.378c-0.067,0.042-0.134,0.085-0.193,0.129
		c-0.458,0.347-0.976,0.76-1.315,1.295c-0.181,0.286-0.306,0.497-0.381,0.807c-0.04,0.167-0.07,0.339-0.099,0.504
		c-0.025,0.145-0.051,0.291-0.083,0.434c-0.113,0.5-0.309,0.859-0.598,1.098C8.047,26.72,7.83,26.81,7.601,26.904
		c-0.197,0.082-0.4,0.165-0.583,0.293c-0.574,0.4-0.986,0.927-1.384,1.437c-0.244,0.312-0.495,0.635-0.783,0.927
		c-0.14,0.142-0.28,0.313-0.414,0.48c-0.189,0.233-0.385,0.475-0.585,0.637c-0.092,0.075-0.234,0.135-0.315,0.096
		c0-0.001-0.014-0.009-0.014-0.009c-0.11-0.077-0.022-0.246,0.084-0.428c0.017-0.027,0.031-0.052,0.044-0.075
		c0.129-0.238,0.32-0.463,0.505-0.68c0.119-0.14,0.242-0.284,0.347-0.43c0.062-0.085,0.2-0.254,0.376-0.468
		c1.251-1.517,1.981-2.528,1.755-2.879c-0.016-0.024-0.041-0.037-0.068-0.037c-0.013,0-0.025,0.003-0.038,0.009
		c-0.022,0.013-0.042,0.026-0.062,0.04c-0.314,0.223-0.575,0.538-0.828,0.842c-0.065,0.08-0.129,0.158-0.194,0.232
		c-0.106,0.125-0.212,0.248-0.316,0.373c-0.03,0.036-0.057,0.072-0.084,0.109c-0.05,0.068-0.098,0.132-0.158,0.181
		c-0.177,0.143-0.355,0.283-0.534,0.423l-0.281,0.221c-0.031,0.025-0.061,0.05-0.089,0.074c-0.148,0.125-0.254,0.214-0.445,0.172
		c-0.026-0.006-0.052-0.014-0.078-0.021c-0.084-0.025-0.181-0.054-0.28-0.025c-0.159,0.045-0.236,0.212-0.241,0.346
		c-0.004,0.129,0.052,0.245,0.103,0.346c0.057,0.114,0.105,0.213,0.072,0.316c-0.041,0.125-0.096,0.244-0.153,0.369l-0.04,0.081
		c-0.025,0.053-0.055,0.082-0.061,0.084c-0.002-0.001-0.012-0.008-0.024-0.028C2.81,29.874,2.81,29.817,2.81,29.756v-0.023
		c-0.001-0.188-0.042-0.38-0.115-0.554c-0.034-0.078-0.074-0.153-0.114-0.227c-0.044-0.082-0.086-0.16-0.119-0.241
		c-0.042-0.106-0.099-0.305-0.008-0.457c0.061-0.102,0.164-0.191,0.262-0.278c0.027-0.023,0.054-0.048,0.079-0.071
		c0.511-0.469,0.64-0.665,0.627-1.371c-0.009-0.546,0.3-1.021,0.598-1.481c0.059-0.089,0.116-0.178,0.171-0.267
		c0.12-0.193,0.247-0.376,0.371-0.553c0.273-0.391,0.531-0.761,0.708-1.225c0.167-0.437,0.397-0.76,0.643-1.103
		c0.157-0.219,0.318-0.445,0.464-0.706c0.334-0.598,0.439-1.293,0.54-1.967c0.096-0.641,0.196-1.304,0.497-1.868
		c0.072-0.135,0.153-0.264,0.24-0.391c-0.333,0.227-0.655,0.468-0.971,0.716c0,0.003-0.002,0.006-0.004,0.009
		c-0.173,0.437-0.244,0.905-0.312,1.357c-0.108,0.725-0.211,1.411-0.713,1.948c-0.493,0.527-0.611,0.705-0.756,1.388
		c-0.081,0.379-0.294,0.681-0.52,1.001c-0.062,0.087-0.125,0.177-0.187,0.27c-0.118,0.178-0.249,0.353-0.376,0.523
		c-0.249,0.333-0.506,0.678-0.688,1.065c-0.145,0.308-0.2,0.624-0.253,0.931c-0.04,0.228-0.082,0.464-0.159,0.69
		c-0.096,0.28-0.3,0.462-0.496,0.64c-0.165,0.147-0.335,0.301-0.438,0.508c-0.172,0.345,0.004,0.524,0.175,0.697
		c0.1,0.103,0.204,0.208,0.266,0.36c0.39,0.946-0.307,2.199-0.816,3.114c-0.061,0.108-0.119,0.213-0.171,0.311
		c-0.174,0.321-0.247,0.669-0.316,1.006c-0.048,0.231-0.099,0.47-0.181,0.7l-0.029,0.081c-0.061,0.179-0.136,0.4-0.281,0.488
		c-0.043,0.026-0.1,0.049-0.142,0.042C0.423,35.609,0.618,36.378,0.865,37.13"/>
	<path fill="#C2A43A" d="M45.719,68.127c0.016,0.02,0.038,0.027,0.061,0.027c0.005,0,0.009,0,0.014-0.002
		c0.028-0.004,0.051-0.021,0.062-0.049c0.375-0.945,0.114-1.73-0.237-2.586c-0.016-0.037-0.056-0.061-0.095-0.047
		c-0.039,0.01-0.064,0.045-0.061,0.084c0.024,0.244-0.019,0.502-0.065,0.773C45.302,66.891,45.195,67.523,45.719,68.127"/>
	<path fill="#C2A43A" d="M12.783,15.586c-0.014,0.015-0.053,0.046-0.102,0.088c-0.401,0.333-0.622,0.559-0.557,0.725
		c0.041,0.103,0.164,0.123,0.273,0.123c0.021,0,0.042-0.001,0.061-0.002c0.166-0.009,0.335-0.223,0.485-0.413
		c0.053-0.067,0.103-0.13,0.136-0.162c0.057-0.054,0.112-0.099,0.164-0.141c0.192-0.159,0.358-0.297,0.395-0.655
		c0.027-0.257-0.031-0.516-0.156-0.737c-0.215,0.047-0.428,0.098-0.64,0.154C13.017,14.923,13.098,15.25,12.783,15.586"/>
	<path fill="#C2A43A" d="M7.625,23.231c0.017,0.014,0.036,0.02,0.057,0.02c0.024,0,0.053-0.008,0.085-0.018
		c0.09-0.027,0.287-0.101,0.315-0.118c0.137-0.084,0.263-0.205,0.375-0.357c0.152-0.208,0.255-0.443,0.355-0.67l1.887-4.286
		c0.003-0.007,0.017-0.045,0.037-0.096c0.033-0.086,0.107-0.285,0.129-0.327c0.013-0.017,0.02-0.04,0.016-0.063
		c-0.007-0.044-0.048-0.072-0.092-0.067c-0.005,0.001-0.009,0.002-0.013,0.002c-0.273,0.053-0.557,0.409-0.764,0.669
		c-0.035,0.043-0.066,0.082-0.093,0.115c-0.25,0.299-0.48,0.631-0.707,1.015c-0.398,0.676-0.713,1.406-1.018,2.115
		c-0.272,0.632-0.555,1.286-0.6,1.994C7.592,23.187,7.604,23.214,7.625,23.231"/>
	<path fill="#C2A43A" d="M20.675,71.094L20.675,71.094c0.002-0.002,0.003-0.002,0.005-0.002c0.472-0.167,0.942-0.355,1.396-0.542
		c0.884-0.356,1.798-0.729,2.753-0.923c0.642-0.131,1.25-0.152,1.812-0.156c0.083,0,0.196-0.002,0.289-0.062
		c0.061-0.04,0.104-0.108,0.114-0.183c0.007-0.061-0.009-0.117-0.047-0.158c-0.068-0.074-0.174-0.075-0.231-0.075
		c-1.201-0.009-2.376,0.14-3.485,0.43c-0.562,0.146-1.044,0.333-1.474,0.571c-0.237,0.133-0.461,0.281-0.664,0.445
		c-0.107,0.084-0.21,0.179-0.308,0.271c-0.021,0.021-0.049,0.057-0.08,0.094c-0.033,0.041-0.101,0.127-0.129,0.137v0.002
		c-0.042,0.015-0.065,0.062-0.05,0.103c0.012,0.034,0.044,0.056,0.077,0.056C20.66,71.098,20.668,71.096,20.675,71.094"/>
	<path fill="#C2A43A" d="M43.626,77.209c-0.534-0.441-1.087-0.896-1.72-1.05c-0.174-0.042-0.356-0.062-0.545-0.062
		c-0.224,0-0.458,0.028-0.698,0.088c-0.129,0.031-0.266,0.096-0.412,0.16c-0.236,0.107-0.482,0.221-0.679,0.188
		c-0.227-0.035-0.284-0.145-0.362-0.29c-0.05-0.095-0.108-0.2-0.217-0.3c-0.253-0.221-0.405-0.182-0.567-0.143
		c-0.091,0.023-0.186,0.049-0.322,0.038c-0.21-0.017-0.406-0.058-0.596-0.098c-0.509-0.108-0.991-0.209-1.542,0.263l1.246,0.291
		c0.12-0.023,0.24-0.04,0.364-0.027c0.44,0.029,0.721,0.153,1.026,0.354l1.615,0.379c0.131-0.044,0.264-0.099,0.398-0.157
		c1.01-0.443,1.85,0.225,2.663,0.871c0.002,0.002,0.005,0.004,0.007,0.006l1.531,0.359c-0.229-0.141-0.462-0.301-0.705-0.48
		C43.957,77.48,43.796,77.35,43.626,77.209"/>
	<path fill="#C2A43A" d="M7.687,45.152c0.018,0.005,0.038,0.007,0.058,0.007c0.078,0,0.162-0.032,0.211-0.056l0.035-0.016
		c0.047-0.02,0.096-0.038,0.144-0.111c0.034-0.055,0.052-0.149,0.07-0.259c0.012-0.067-0.014-0.135-0.065-0.17
		c-0.051-0.034-0.115-0.034-0.192-0.003c-0.145,0.062-0.312,0.191-0.361,0.35c-0.024,0.076-0.023,0.138,0.003,0.186
		C7.611,45.116,7.644,45.143,7.687,45.152L7.687,45.152"/>
	<path fill="#C2A43A" d="M9.386,42.816c-0.745-0.213-1.259,0.106-1.807,0.519c-0.053,0.039-0.167,0.134-0.304,0.247
		c-0.25,0.207-0.768,0.636-0.845,0.663c-0.062-0.004-0.101-0.048-0.159-0.12c-0.077-0.094-0.183-0.225-0.398-0.143
		c-0.14,0.054-0.233,0.287-0.315,0.572c0.112,0.105,0.229,0.209,0.343,0.312c0.045-0.101,0.092-0.171,0.14-0.187
		c0.205-0.068,0.291,0.023,0.399,0.146c0.119,0.133,0.28,0.313,0.606,0.05c0.084-0.068,0.155-0.223,0.236-0.396
		c0.065-0.142,0.14-0.303,0.21-0.375c0.189-0.191,0.439-0.33,0.66-0.443c0.422-0.219,1.157-0.426,1.474-0.201
		c0.134,0.098,0.185,0.271,0.148,0.52c-0.045,0.321-0.239,0.437-0.484,0.58c-0.097,0.058-0.197,0.114-0.296,0.191
		c-0.337,0.264-0.699,0.699-0.906,0.995c-0.138,0.196-0.235,0.396-0.308,0.59c0.174,0.118,0.349,0.231,0.527,0.347
		c0.123-0.371,0.308-0.709,0.557-0.992c0.147-0.166,0.373-0.31,0.611-0.457c0.413-0.26,0.838-0.526,0.936-0.979
		C10.554,43.59,9.991,42.991,9.386,42.816"/>
	<path fill="#C2A43A" d="M15.622,66.023c0.067,0.011,0.118,0.019,0.16,0.019c0.113,0,0.164-0.053,0.304-0.205
		c0.036-0.039,0.08-0.086,0.133-0.144c0.021-0.021,0.028-0.053,0.018-0.08c-0.01-0.029-0.034-0.051-0.064-0.055l-0.281-0.045
		c-0.01-0.004-0.019,0-0.029,0.002c-0.218,0.041-0.359,0.178-0.41,0.392c-0.005,0.022-0.001,0.046,0.012,0.063
		c0.013,0.019,0.033,0.029,0.055,0.033L15.622,66.023z"/>
	<path fill="#C2A43A" d="M36.701,74.854c-0.082-0.057-0.187-0.082-0.274-0.104c-0.117-0.029-0.235-0.049-0.353-0.052
		C35.694,74.68,35.335,74.76,35,74.93c-0.312,0.158-0.553,0.331-0.716,0.516c-0.018,0.021-0.036,0.041-0.052,0.062
		c-0.023,0.028-0.036,0.055-0.052,0.079l0.431,0.101c0.036-0.023,0.074-0.052,0.117-0.082l0.096-0.069
		c0.25-0.187,0.484-0.359,0.796-0.396c0.122-0.017,0.245-0.004,0.375,0.01c0.149,0.016,0.304,0.027,0.459,0.002
		c0.083-0.016,0.16-0.041,0.23-0.073c0.034-0.019,0.09-0.047,0.094-0.108C36.781,74.907,36.731,74.874,36.701,74.854"/>
	<path fill="#C2A43A" d="M7.879,61.57c0.004,0,0.008,0,0.012,0c0.341-0.055,0.715-0.092,1.111-0.135
		c1.159-0.119,2.474-0.256,3.384-0.814c0.031-0.02,0.046-0.059,0.035-0.094c-0.011-0.036-0.048-0.055-0.083-0.055
		c-0.243,0.017-0.506,0.024-0.779,0.036c-1.246,0.052-2.797,0.113-3.732,0.918c-0.028,0.023-0.036,0.062-0.021,0.097
		C7.819,61.553,7.848,61.57,7.879,61.57"/>
	<path fill="#C2A43A" d="M12.827,33.235c-0.327-0.128-0.831,0.257-1.318,0.625c-0.251,0.192-0.489,0.372-0.643,0.43
		c-0.183,0.069-0.382,0.112-0.576,0.156c-0.175,0.038-0.357,0.078-0.53,0.138c-0.125,0.042-0.3,0.062-0.468,0.079
		c-0.182,0.02-0.353,0.038-0.471,0.086c-0.648,0.264-1.454,1.275-1.743,1.725c-0.469,0.729-1.154,1.176-1.832,1.195
		c-0.469,0.013-0.824,0.148-1.15,0.438c-0.282,0.252-0.526,0.579-0.727,0.865c-0.14,0.197-0.228,0.424-0.314,0.644
		c-0.053,0.136-0.108,0.275-0.173,0.405L2.719,40.34c-0.067,0.134-0.136,0.268-0.204,0.4c0.127,0.215,0.257,0.425,0.392,0.633
		c0.013-0.045,0.025-0.087,0.039-0.122c0.045-0.112,0.088-0.228,0.132-0.341c0.194-0.513,0.396-1.044,0.756-1.467
		c0.351-0.413,0.798-0.629,1.271-0.857c0.139-0.066,0.278-0.134,0.417-0.207c0.511-0.27,1.253-0.691,1.79-1.245
		c0.185-0.19,0.357-0.394,0.523-0.592c0.052-0.062,0.104-0.124,0.158-0.186c-0.038,0.127-0.016,0.265,0.064,0.408
		c0.036,0.066,0.092,0.109,0.162,0.124c0.21,0.044,0.514-0.179,0.834-0.415c0.191-0.142,0.388-0.289,0.513-0.326
		c0.194-0.059,0.371-0.099,0.542-0.137c0.355-0.08,0.691-0.156,1.086-0.393c0.031-0.019,0.046-0.055,0.037-0.09
		c-0.009-0.035-0.04-0.06-0.075-0.061c-0.022,0.005-1.992,0.017-2.818,0.506c0.124-0.129,0.255-0.252,0.395-0.364
		c0.359-0.286,0.794-0.336,1.255-0.388c0.265-0.029,0.54-0.061,0.809-0.139c0.418-0.123,0.741-0.276,1.015-0.481
		c0.1-0.075,0.181-0.16,0.257-0.241c0.157-0.166,0.276-0.285,0.485-0.281c-0.116,0.329-0.128,0.49-0.048,0.581
		c0.092,0.104,0.256,0.067,0.484,0.015c0.146-0.033,0.326-0.074,0.522-0.087c0.479-0.031,0.878,0.021,1.213,0.135
		c-0.014-0.204-0.025-0.41-0.035-0.616c-0.274-0.085-0.564-0.133-0.864-0.133c-0.021,0-0.042,0-0.062,0.001
		c-0.073,0.002-0.158,0.019-0.249,0.035c-0.165,0.032-0.369,0.072-0.426-0.005c-0.035-0.044-0.023-0.112,0-0.219
		C13.122,33.62,13.175,33.369,12.827,33.235"/>
	<path fill="#C2A43A" d="M16.942,56.428c0.051,0,0.102-0.007,0.153-0.021c0.023-0.007,0.042-0.022,0.052-0.046
		c0.01-0.021,0.009-0.049-0.002-0.07c-0.166-0.318-0.375-0.628-0.578-0.926c-0.105-0.157-0.21-0.315-0.313-0.477l-0.827-0.195
		C15.673,55.253,16.267,56.428,16.942,56.428"/>
	<path fill="#C2A43A" d="M6.525,38.71c0.344-0.271,0.699-0.551,1.051-0.844c0.031-0.026,0.039-0.071,0.017-0.105
		c-0.015-0.024-0.041-0.038-0.068-0.038c-0.011,0-0.023,0.002-0.034,0.007c-0.778,0.356-1.783,0.853-2.646,1.538L4.688,39.39
		c-0.121,0.095-0.242,0.19-0.355,0.287c-0.149,0.127-0.263,0.294-0.374,0.456C3.92,40.189,3.882,40.246,3.843,40.3l-0.298,0.409
		c-0.188,0.258-0.376,0.516-0.564,0.77c0.106,0.162,0.214,0.32,0.326,0.479c0.175-0.312,0.365-0.604,0.574-0.849
		C4.708,40.141,5.591,39.446,6.525,38.71"/>
	<path fill="#C2A43A" d="M13.228,36.616c0.24,0,0.544-0.131,0.753-0.349c0.019-0.02,0.027-0.049,0.021-0.075
		c-0.007-0.026-0.027-0.048-0.052-0.058l-0.843-0.294c-0.035-0.012-0.074,0.001-0.095,0.033c-0.26,0.407-0.142,0.591-0.048,0.664
		C13.031,36.592,13.123,36.616,13.228,36.616"/>
	<path fill="#C2A43A" d="M11.393,38.047c-0.421,0.005-0.857,0.011-1.283,0.114c-0.239,0.058-0.451,0.164-0.657,0.268
		c-0.187,0.094-0.363,0.183-0.559,0.238c-0.2,0.057-0.392,0.045-0.595,0.031c-0.156-0.011-0.316-0.021-0.482,0.003
		c-0.704,0.101-1.311,0.59-1.847,1.021l-0.089,0.071c-0.094,0.075-0.193,0.15-0.293,0.224c-0.185,0.135-0.375,0.275-0.537,0.434
		c-0.059,0.057-0.119,0.111-0.178,0.166c-0.199,0.183-0.406,0.369-0.534,0.638c-0.115,0.238-0.169,0.506-0.158,0.772
		c0.001,0.035,0.081,0.386,0.169,0.574c-0.128,0.033-0.25,0.058-0.37,0.078c-0.041,0.008-0.078,0.014-0.117,0.021
		c0.15,0.188,0.306,0.375,0.465,0.561c0.259-0.003,0.53-0.038,0.7-0.312c0.137-0.221,0.018-0.447-0.098-0.666
		c-0.072-0.141-0.147-0.282-0.17-0.434c-0.079-0.547,0.526-0.908,1.06-1.228c0.142-0.083,0.273-0.163,0.388-0.242
		c0.714-0.496,1.312-0.607,1.996-0.37c1.048,0.363,1.239,0.31,2.091-0.228c0.351-0.222,0.934-0.129,1.497-0.038
		c0.384,0.061,0.747,0.118,1.047,0.083c0.771-0.088,1.663-0.494,2.37-1.11c-0.057-0.311-0.105-0.628-0.153-0.944
		c-0.089,0.104-0.183,0.204-0.285,0.297c-1.398,1.267-2.143,1.135-2.861,1.008c-0.398-0.07-0.81-0.143-1.312,0.021
		c-0.188,0.061-0.362,0.141-0.531,0.219c-0.394,0.181-0.767,0.351-1.242,0.238c-0.271-0.064-0.419-0.155-0.406-0.25
		c0.014-0.1,0.181-0.104,0.39-0.104c0.105,0.002,0.196,0.003,0.264-0.019c0.21-0.065,0.363-0.18,0.512-0.292
		c0.176-0.133,0.344-0.258,0.6-0.299c0.426-0.069,0.867-0.065,1.295-0.062c0.63,0.004,1.284,0.01,1.908-0.216
		c0.702-0.253,1.23-0.659,1.571-1.191c-0.089-0.675-0.158-1.367-0.212-2.072c-0.321-0.144-0.72-0.155-1.089-0.019
		c-0.032,0.013-0.052,0.042-0.052,0.077c0,0.033,0.021,0.063,0.052,0.075c0.467,0.174,0.935,0.373,1.081,0.72
		c0.083,0.196,0.061,0.431-0.065,0.715c-0.35,0.786-1.282,1.118-1.953,1.298C12.287,38.035,11.832,38.041,11.393,38.047"/>
	<path fill="#005679" d="M73.288,70.286c2.514,0,4.635-1.963,4.635-4.558c0-2.485-2.121-4.397-4.66-4.397h-5.498v8.955H73.288z
		 M66.507,60.468c0-0.185,0.131-0.34,0.34-0.34h6.493c3.193,0,5.839,2.408,5.839,5.603c0,2.646-1.833,4.768-4.321,5.474l3.824,6.78
		c0.13,0.209,0.078,0.471-0.184,0.471h-0.812c-0.183,0-0.288-0.076-0.366-0.234l-3.797-6.857c-0.34,0.023-0.628,0.023-0.969,0.023
		h-4.817v6.729c0,0.183-0.157,0.339-0.419,0.339h-0.471c-0.184,0-0.34-0.156-0.34-0.339V60.468z"/>
	<path fill="#005679" d="M83.52,60.468c0-0.185,0.157-0.34,0.34-0.34h10.499c0.184,0,0.34,0.155,0.34,0.34v0.445
		c0,0.185-0.156,0.34-0.34,0.34h-9.583v7.228h8.3c0.183,0,0.34,0.156,0.34,0.34v0.445c0,0.184-0.157,0.342-0.34,0.342h-8.3v7.748
		h9.583c0.184,0,0.34,0.156,0.34,0.34v0.421c0,0.183-0.156,0.339-0.34,0.339H83.86c-0.183,0-0.34-0.156-0.34-0.339V60.468z"/>
	<path fill="#005679" d="M98.072,76.02l0.236-0.312c0.183-0.21,0.364-0.288,0.574-0.104c0.264,0.235,2.199,2.018,4.845,2.018
		c2.382,0,4.398-1.598,4.398-3.51c0-2.33-1.912-3.377-5.079-4.45c-3.038-1.073-5.053-2.146-5.053-5.158
		c0-1.963,1.57-4.634,5.654-4.634c2.592,0,4.504,1.336,4.504,1.336c0.105,0.079,0.288,0.261,0.105,0.548
		c-0.079,0.106-0.159,0.237-0.21,0.343c-0.158,0.209-0.314,0.286-0.576,0.131c-0.079-0.054-1.832-1.229-3.849-1.229
		c-3.221,0-4.425,1.989-4.425,3.479c0,2.229,1.701,3.194,4.347,4.062c3.586,1.229,5.864,2.485,5.864,5.522
		c0,2.617-2.698,4.66-5.709,4.66c-3.115,0-5.209-1.834-5.551-2.146C97.994,76.438,97.863,76.309,98.072,76.02"/>
	<path fill="#005679" d="M116.159,61.253h-5.001c-0.263,0-0.34-0.155-0.34-0.394v-0.394c0-0.209,0.157-0.341,0.34-0.341h11.258
		c0.21,0,0.341,0.156,0.341,0.341v0.444c0,0.188-0.131,0.341-0.341,0.341h-5.026v16.86c0,0.184-0.154,0.341-0.418,0.341H116.5
		c-0.185,0-0.341-0.157-0.341-0.341V61.253z"/>
	<path fill="#005679" d="M135.005,72.38l-4.479-10.551h-0.053l-4.555,10.551H135.005z M122.071,78.141l8.064-18.223
		c0.051-0.105,0.182-0.184,0.313-0.184h0.077c0.132,0,0.262,0.024,0.341,0.184l7.985,18.223c0.053,0.156,0.053,0.313-0.235,0.313
		h-0.681c-0.185,0-0.314-0.13-0.367-0.236l-2.12-4.815h-10.003l-2.094,4.815c-0.054,0.106-0.185,0.236-0.365,0.236h-0.733
		C122.071,78.454,121.994,78.35,122.071,78.141"/>
	<path fill="#005679" d="M141.415,60.468c0-0.185,0.156-0.34,0.34-0.34h0.551c0.184,0,0.342,0.155,0.342,0.34v11.181
		c0,3.379,2.121,5.863,5.603,5.863c3.509,0,5.655-2.46,5.655-5.838V60.468c0-0.209,0.104-0.34,0.367-0.34h0.522
		c0.185,0,0.34,0.155,0.34,0.34v11.312c0,4.007-2.723,6.938-6.887,6.938c-4.138,0-6.833-2.933-6.833-6.938V60.468L141.415,60.468z"
		/>
	<path fill="#005679" d="M167.25,70.286c2.517,0,4.635-1.963,4.635-4.558c0-2.485-2.118-4.397-4.659-4.397h-5.498v8.955H167.25z
		 M160.468,60.468c0-0.185,0.131-0.34,0.342-0.34h6.491c3.195,0,5.841,2.408,5.841,5.603c0,2.646-1.832,4.768-4.32,5.474l3.822,6.78
		c0.131,0.209,0.078,0.471-0.185,0.471h-0.812c-0.185,0-0.287-0.076-0.365-0.234l-3.797-6.857c-0.34,0.023-0.629,0.023-0.969,0.023
		h-4.815v6.729c0,0.183-0.158,0.339-0.419,0.339h-0.473c-0.186,0-0.342-0.156-0.342-0.339V60.468L160.468,60.468z"/>
	<path fill="#005679" d="M187.796,72.38l-4.479-10.551h-0.053l-4.556,10.551H187.796z M174.86,78.141l8.064-18.223
		c0.053-0.105,0.184-0.184,0.314-0.184h0.078c0.132,0,0.262,0.024,0.341,0.184l7.985,18.223c0.053,0.156,0.053,0.313-0.235,0.313
		h-0.683c-0.184,0-0.312-0.13-0.365-0.236l-2.121-4.815h-10.002l-2.094,4.815c-0.055,0.106-0.185,0.236-0.367,0.236h-0.731
		C174.86,78.454,174.784,78.35,174.86,78.141"/>
	<path fill="#005679" d="M194.571,60.205c0-0.209,0.184-0.34,0.393-0.34h0.446l12.565,16.363h0.027V60.468
		c0-0.185,0.156-0.34,0.34-0.34h0.523c0.185,0,0.341,0.155,0.341,0.34v17.909c0,0.234-0.21,0.34-0.42,0.34h-0.339
		c-0.026,0-0.236-0.08-12.674-16.521h-0.024v15.921c0,0.183-0.158,0.34-0.341,0.34h-0.497c-0.185,0-0.341-0.157-0.341-0.34V60.205
		L194.571,60.205z"/>
	<path fill="#005679" d="M217.524,61.253h-5c-0.262,0-0.34-0.155-0.34-0.394v-0.394c0-0.209,0.156-0.341,0.34-0.341h11.26
		c0.209,0,0.341,0.156,0.341,0.341v0.444c0,0.188-0.132,0.341-0.341,0.341h-5.026v16.86c0,0.184-0.157,0.341-0.419,0.341h-0.473
		c-0.186,0-0.342-0.157-0.342-0.341V61.253L217.524,61.253z"/>
	<path fill="#005679" d="M78.024,15.525c3.859,0,7.036,1.408,9.771,3.74c0.321,0.321,0.361,0.803,0.04,1.125
		c-0.604,0.643-1.206,1.247-1.809,1.889c-0.322,0.362-0.644,0.322-1.045-0.039c-1.891-1.649-4.383-2.734-6.835-2.734
		c-5.708,0-10.091,4.824-10.091,10.453c0,5.588,4.382,10.413,10.091,10.413c3.338,0,5.629-1.207,6.032-1.366v-4.504h-3.94
		c-0.443,0-0.765-0.322-0.765-0.723v-2.333c0-0.442,0.322-0.763,0.765-0.763h7.317c0.403,0,0.724,0.361,0.724,0.763
		c0,3.217,0.04,6.514,0.04,9.729c0,0.202-0.161,0.524-0.321,0.646c0,0-4.141,2.654-9.972,2.654c-8,0-14.474-6.395-14.474-14.436
		C63.55,21.999,70.024,15.525,78.024,15.525"/>
	<path fill="#005679" d="M94.632,16.692c0-0.403,0.322-0.765,0.765-0.765h16.082c0.441,0,0.764,0.362,0.764,0.765v2.251
		c0,0.401-0.322,0.763-0.764,0.763H98.773v8.202h10.734c0.403,0,0.765,0.362,0.765,0.764v2.252c0,0.44-0.361,0.763-0.765,0.763
		H98.773v8.644h12.706c0.441,0,0.764,0.362,0.764,0.765v2.211c0,0.402-0.322,0.767-0.764,0.767H95.397
		c-0.442,0-0.765-0.362-0.765-0.767V16.692z"/>
	<path fill="#005679" d="M130.58,40.452c5.749,0,10.453-4.664,10.453-10.414c0-5.708-4.704-10.492-10.453-10.492
		c-5.709,0-10.414,4.784-10.414,10.492C120.166,35.788,124.871,40.452,130.58,40.452 M130.58,15.525
		c8.04,0,14.476,6.474,14.476,14.513c0,8.042-6.436,14.435-14.476,14.435c-8.041,0-14.435-6.394-14.435-14.435
		C116.147,21.999,122.539,15.525,130.58,15.525"/>
	<path fill="#005679" d="M162.185,29.597c2.612,0,4.903-2.211,4.903-4.986c0-2.612-2.291-4.784-4.903-4.784h-7.156v9.771
		L162.185,29.597L162.185,29.597z M150.808,16.692c0-0.403,0.319-0.765,0.764-0.765h10.937c4.823,0,8.765,3.819,8.765,8.605
		c0,3.698-2.453,6.754-5.951,8.16l5.51,10.212c0.281,0.521,0,1.166-0.686,1.166h-3.135c-0.322,0-0.562-0.2-0.644-0.361
		l-5.349-10.654h-6.069v10.251c0,0.401-0.362,0.766-0.765,0.766h-2.613c-0.442,0-0.764-0.362-0.764-0.766V16.692L150.808,16.692z"/>
	<path fill="#005679" d="M189.969,15.525c3.859,0,7.036,1.408,9.771,3.74c0.322,0.321,0.363,0.803,0.041,1.125
		c-0.604,0.643-1.206,1.247-1.809,1.889c-0.322,0.362-0.646,0.322-1.047-0.039c-1.89-1.649-4.383-2.734-6.836-2.734
		c-5.709,0-10.091,4.824-10.091,10.453c0,5.588,4.382,10.413,10.091,10.413c3.338,0,5.63-1.207,6.031-1.366v-4.504h-3.938
		c-0.443,0-0.767-0.322-0.767-0.723v-2.333c0-0.442,0.319-0.763,0.767-0.763h7.314c0.4,0,0.725,0.361,0.725,0.763
		c0,3.217,0.041,6.514,0.041,9.729c0,0.202-0.16,0.524-0.322,0.646c0,0-4.142,2.654-9.972,2.654c-8,0-14.475-6.395-14.475-14.436
		C175.495,21.999,181.969,15.525,189.969,15.525"/>
	<path fill="#005679" d="M206.578,16.692c0-0.403,0.321-0.765,0.765-0.765h16.081c0.442,0,0.765,0.362,0.765,0.765v2.251
		c0,0.401-0.32,0.763-0.765,0.763h-12.705v8.202h10.734c0.401,0,0.765,0.362,0.765,0.764v2.252c0,0.44-0.361,0.763-0.765,0.763
		h-10.734v8.644h12.705c0.442,0,0.765,0.362,0.765,0.765v2.211c0,0.402-0.32,0.767-0.765,0.767h-16.081
		c-0.441,0-0.765-0.362-0.765-0.767V16.692z"/>
</g>
</svg>
