<svg id="Layer_1" data-name="Layer 1" xmlns="http://www.w3.org/2000/svg" viewBox="0 0 209 79"><defs><style>.cls-1{fill:#6a1030;}</style></defs><path class="cls-1" d="M18.57,49.56a.45.45,0,0,1-.3.49H13.5a.6.6,0,0,1-.36-.57v-4c0-.66-.31-1-.93-1h-.06c-.53,0-.79.41-.79,1.21v2.22q0,1.81,4,4.64a8.33,8.33,0,0,1,3.21,6.56v3.35c0,4.33-2.05,6.51-6.14,6.51h-.36q-4.26,0-5.63-3.36A7,7,0,0,1,6,62.9V58.34c0-.08.1-.17.28-.3h4.8c.07,0,.17.1.28.3V62.4c0,.81.32,1.21,1,1.21s.79-.32.79-1V59.25q0-1.61-4.14-4.64A8,8,0,0,1,6,48.7V45.2a6.19,6.19,0,0,1,1.57-4.5,6.4,6.4,0,0,1,4.64-1.57c4.23,0,6.36,2.17,6.36,6.5Z"/><path class="cls-1" d="M26.62,40h6.13c.24,0,.44.84.58,2.5q2.54,15.5,3.78,26c-.09.29-.21.46-.35.5H32c-.28,0-.5-1-.65-3.14a11.94,11.94,0,0,0-.5-2.71H28.41c-.42,3.84-.73,5.77-.93,5.77a.7.7,0,0,1-.3.08H22.54c-.06,0-.15-.1-.27-.28q1.1-9.4,3.64-26a14.6,14.6,0,0,1,.56-2.64Zm3,10.21c-.05,1.14-.37,3.77-1,7.93h2.08c-.45-3.24-.79-5.9-1-7.93Z"/><path class="cls-1" d="M47.19,40c3,0,4.84.75,5.57,2.22a6.33,6.33,0,0,1,1.07,4.07V51c0,3.18-1.57,5.17-4.72,6a8.6,8.6,0,0,1-1.65.14H47V68.47a.45.45,0,0,1-.5.5H42.11a.45.45,0,0,1-.49-.5v-28c0-.35.17-.52.49-.52Zm-.58,5v7.21h.5a1.51,1.51,0,0,0,1.72-1.7V46.7c0-1.15-.39-1.72-1.15-1.72Z"/><path class="cls-1" d="M70.8,45.91V62.19c0,3-.79,4.9-2.36,5.78a6.18,6.18,0,0,1-3.86,1h-.42c-2.87,0-4.73-1.25-5.57-3.71A7.26,7.26,0,0,1,58.24,63v-18q0-4.34,3.84-5.63a8.39,8.39,0,0,1,2.44-.3c2.92,0,4.82,1.06,5.71,3.15A8.08,8.08,0,0,1,70.8,45.91ZM63.23,62.46c0,1,.39,1.51,1.15,1.51h.36c.71,0,1.07-.68,1.07-2.06V46.21c0-1.43-.44-2.15-1.29-2.15a1.37,1.37,0,0,0-1.29,1.57Z"/><path class="cls-1" d="M81.73,40c2.9,0,4.75.72,5.57,2.15.71.85,1.07,2.34,1.07,4.49v4.15q0,3.79-2.79,5.07v.06Q89,65.8,89.8,68.61a.5.5,0,0,1-.52.36h-5c-.22,0-.7-1.43-1.43-4.29,0,0-.46-1.5-1.27-4.5h-.08v8.29a.45.45,0,0,1-.5.5H76.66a.45.45,0,0,1-.5-.5v-28c0-.35.17-.52.5-.52Zm-.58,5v7.21h.5c1.15,0,1.72-.54,1.72-1.64V46.62c0-1.1-.39-1.64-1.15-1.64Z"/><path class="cls-1" d="M99.37,40c.08,0,.17.1.28.3V43.2c0,.13,0,.21.08.21l-.08.36V65.68a.55.55,0,0,0,.08.29.51.51,0,0,0-.08.28v2.44c0,.06-.09.15-.28.28H94.8c-.33,0-.5-.22-.5-.64V40.64c0-.44.17-.66.5-.66Z"/><path class="cls-1" d="M123.51,49.56a.45.45,0,0,1-.29.49h-4.78a.61.61,0,0,1-.36-.57v-4c0-.66-.31-1-.93-1h-.06c-.53,0-.79.41-.79,1.21v2.22q0,1.81,4,4.64a8.33,8.33,0,0,1,3.21,6.56v3.35c0,4.33-2,6.51-6.14,6.51H117q-4.24,0-5.63-3.36A7.15,7.15,0,0,1,111,62.9V58.34c0-.08.09-.17.28-.3H116c.08,0,.17.1.28.3V62.4c0,.81.33,1.21,1,1.21s.79-.32.79-1V59.25q0-1.61-4.14-4.64a8,8,0,0,1-3-5.91V45.2a6.19,6.19,0,0,1,1.57-4.5,6.39,6.39,0,0,1,4.63-1.57q6.36,0,6.36,6.5Z"/><path class="cls-1" d="M141.44,45.91V62.19c0,3-.79,4.9-2.36,5.78a6.18,6.18,0,0,1-3.86,1h-.42c-2.87,0-4.73-1.25-5.57-3.71a7,7,0,0,1-.36-2.22v-18c0-2.89,1.29-4.77,3.85-5.63a8.32,8.32,0,0,1,2.43-.3c2.92,0,4.83,1.06,5.71,3.15A8.05,8.05,0,0,1,141.44,45.91Zm-7.57,16.55c0,1,.38,1.51,1.15,1.51h.35c.71,0,1.07-.68,1.07-2.06V46.21c0-1.43-.43-2.15-1.29-2.15a1.37,1.37,0,0,0-1.28,1.57Z"/><path class="cls-1" d="M147.15,40h4.72a.62.62,0,0,1,.35.58v23h5.85c.19.06.28.28.28.64v4A.72.72,0,0,1,158,69H147.15l-.28-.22q-.08-4.55-.08-6.42V47.83q0-2.2.08-7.63Z"/><path class="cls-1" d="M164.44,40h6.13c.23,0,.43.84.57,2.5q2.54,15.5,3.79,26c-.1.29-.22.46-.36.5h-4.78c-.28,0-.5-1-.65-3.14a11.94,11.94,0,0,0-.5-2.71h-2.42c-.42,3.84-.73,5.77-.93,5.77A.66.66,0,0,1,165,69h-4.64c-.06,0-.16-.1-.28-.28q1.09-9.4,3.64-26a14.6,14.6,0,0,1,.56-2.64Zm3,10.21c0,1.14-.37,3.77-1,7.93h2.08c-.45-3.24-.79-5.9-1-7.93Z"/><path class="cls-1" d="M185,40c2.9,0,4.75.72,5.57,2.15.71.85,1.07,2.34,1.07,4.49v4.15q0,3.79-2.8,5.07v.06q3.41,9.9,4.23,12.71a.5.5,0,0,1-.52.36h-5c-.22,0-.7-1.43-1.43-4.29,0,0-.47-1.5-1.27-4.5h-.08v8.29a.45.45,0,0,1-.5.5h-4.36a.45.45,0,0,1-.49-.5v-28c0-.35.17-.52.49-.52Zm-.58,5v7.21h.5c1.15,0,1.72-.54,1.72-1.64V46.62c0-1.1-.39-1.64-1.15-1.64Z"/><path class="cls-1" d="M202.64,40c.08,0,.17.1.28.3V43.2c0,.13,0,.21.08.21l-.08.36V65.68A.55.55,0,0,0,203,66a.51.51,0,0,0-.08.28v2.44c0,.06-.09.15-.28.28h-4.58c-.32,0-.49-.22-.49-.64V40.64c0-.44.17-.66.49-.66Z"/><path class="cls-1" d="M55,29a49.12,49.12,0,0,1,10.37-8.8,63.55,63.55,0,0,1,12.24-6,80,80,0,0,1,53.68-.07,64.22,64.22,0,0,1,12.27,6A50.21,50.21,0,0,1,154,28.89a52.41,52.41,0,0,0-10.66-8.34,64.67,64.67,0,0,0-12.26-5.69,83.32,83.32,0,0,0-53.17.07,63.72,63.72,0,0,0-12.24,5.72A51.52,51.52,0,0,0,55,29Z"/></svg>